<?xml version="1.0" encoding="UTF-8" standalone="no"?>
<!-- Created with Inkscape (http://www.inkscape.org/) -->

<svg
   xmlns:dc="http://purl.org/dc/elements/1.1/"
   xmlns:cc="http://creativecommons.org/ns#"
   xmlns:rdf="http://www.w3.org/1999/02/22-rdf-syntax-ns#"
   xmlns:svg="http://www.w3.org/2000/svg"
   xmlns="http://www.w3.org/2000/svg"
   xmlns:sodipodi="http://sodipodi.sourceforge.net/DTD/sodipodi-0.dtd"
   xmlns:inkscape="http://www.inkscape.org/namespaces/inkscape"
   width="529"
   height="474"
   viewBox="0 0 529.00001 474.00001"
   id="svg2"
   version="1.1"
   inkscape:version="0.91 r13725"
   sodipodi:docname="splat.svg">
  <defs
     id="defs4">
    <filter
       style="color-interpolation-filters:sRGB"
       inkscape:label="Roughen"
       id="filter4302">
      <feTurbulence
         type="turbulence"
         numOctaves="2"
         seed="232"
         baseFrequency="0.01 0.01"
         result="turbulence"
         id="feTurbulence4304" />
      <feDisplacementMap
         in="SourceGraphic"
         in2="turbulence"
         scale="39.3048"
         yChannelSelector="G"
         xChannelSelector="R"
         id="feDisplacementMap4306"
         result="fbSourceGraphic" />
      <feColorMatrix
         result="fbSourceGraphicAlpha"
         in="fbSourceGraphic"
         values="0 0 0 -1 0 0 0 0 -1 0 0 0 0 -1 0 0 0 0 1 0"
         id="feColorMatrix4308" />
      <feTurbulence
         id="feTurbulence4310"
         type="turbulence"
         numOctaves="2"
         seed="232"
         baseFrequency="0.01 0.01"
         result="turbulence" />
      <feDisplacementMap
         id="feDisplacementMap4312"
         in2="turbulence"
         in="fbSourceGraphic"
         scale="39.3"
         yChannelSelector="G"
         xChannelSelector="R" />
    </filter>
  </defs>
  <sodipodi:namedview
     id="base"
     pagecolor="#ffffff"
     bordercolor="#666666"
     borderopacity="1.0"
     inkscape:pageopacity="0.0"
     inkscape:pageshadow="2"
     inkscape:zoom="0.7"
     inkscape:cx="395.57663"
     inkscape:cy="301.02273"
     inkscape:document-units="px"
     inkscape:current-layer="layer1"
     showgrid="false"
     inkscape:window-width="1366"
     inkscape:window-height="716"
     inkscape:window-x="0"
     inkscape:window-y="24"
     inkscape:window-maximized="1"
     units="px" />
  <metadata
     id="metadata7">
    <rdf:RDF>
      <cc:Work
         rdf:about="">
        <dc:format>image/svg+xml</dc:format>
        <dc:type
           rdf:resource="http://purl.org/dc/dcmitype/StillImage" />
        <dc:title></dc:title>
      </cc:Work>
    </rdf:RDF>
  </metadata>
  <g
     inkscape:label="Layer 1"
     inkscape:groupmode="layer"
     id="layer1"
     transform="translate(0,-578.36216)">
    <g
       id="g4537"
       transform="translate(-128.28571,257.71429)">
      <ellipse
         ry="197.14285"
         rx="220"
         cy="556.64795"
         cx="391.42856"
         id="path4136"
         style="opacity:1;fill:#ff5555;fill-opacity:1;stroke:none;stroke-width:4.5999999;stroke-linejoin:miter;stroke-miterlimit:4;stroke-dasharray:none;stroke-dashoffset:0;filter:url(#filter4302)" />
      <g
         id="text4464"
         style="font-style:normal;font-variant:normal;font-weight:normal;font-stretch:normal;font-size:120.2308197px;line-height:125%;font-family:Purisa;-inkscape-font-specification:Purisa;letter-spacing:0px;word-spacing:0px;fill:#add8e6;fill-opacity:1;stroke:none;stroke-width:1px;stroke-linecap:butt;stroke-linejoin:miter;stroke-opacity:1"
         transform="scale(0.5583699,1.7909275)">
        <path
           style="fill:#add8e6;fill-opacity:1"
           id="path4469"
           d="m 540.00365,344.57117 q 0,2.40461 -1.80346,4.32831 -1.80346,1.80346 -1.80346,3.00577 0,1.32254 0.84161,3.126 1.20231,2.64508 3.00577,3.24623 1.9237,0.60115 9.25778,0.60115 6.252,0 9.378,-0.72138 3.126,-0.72139 6.01154,-2.88554 4.689,-3.36646 5.77108,-5.29016 1.20231,-2.04392 1.20231,-6.85315 0,-3.60693 -1.32254,-5.0497 -1.32254,-1.563 -7.09362,-4.20808 -8.29593,-3.84738 -10.70054,-3.84738 -5.16993,0 -15.87047,-9.01731 -10.58031,-9.01732 -10.58031,-13.46586 0,-6.37223 6.49246,-14.54793 6.49247,-8.29592 14.54793,-12.14331 4.08785,-2.04392 15.50978,-2.04392 5.04969,0 7.57454,0.72138 2.52484,0.72139 5.41038,3.126 2.04393,1.68324 3.60693,3.96762 1.563,2.16416 1.563,3.36646 0,2.88554 -0.96185,2.88554 -0.96184,0 -2.52484,-1.2023 -1.563,-1.20231 -3.24624,-2.52485 -1.68323,-1.44277 -4.80923,-2.64508 -3.126,-1.20231 -6.85316,-1.20231 -10.09938,0 -18.51554,7.33408 -8.29593,7.33408 -8.29593,15.87047 0,6.97339 24.76755,14.90862 19.47739,6.13177 19.47739,19.1167 0,2.64508 -0.96184,6.13177 -2.76531,9.37801 -9.37801,12.98493 -6.61269,3.60693 -23.08431,4.689 l -10.82078,0.72139 -3.24623,-6.73293 q -2.52485,-4.92946 -2.52485,-9.85892 0,-4.08785 1.9237,-6.6127 1.92369,-2.52485 5.41038,-2.52485 2.64508,0 2.64508,3.24624 z"
           inkscape:connector-curvature="0" />
        <path
           style="fill:#add8e6;fill-opacity:1"
           id="path4471"
           d="m 616.00456,271.59106 q 3.84739,0 9.378,-0.96185 5.65085,-1.08208 9.25778,-1.08208 1.563,0 2.16415,0.12024 4.20808,0.60115 6.01154,0.84161 1.80347,0.24046 4.92947,0.96185 3.24623,0.60115 4.56877,1.32254 1.44277,0.72138 3.36646,2.04392 1.92369,1.20231 2.76531,2.88554 0.84162,1.563 1.44277,3.96762 0.60115,2.40461 0.60115,5.41038 0,5.29016 -1.44277,11.06124 -1.44277,5.65085 -2.88554,5.65085 -1.563,0 -1.563,2.28438 0,2.76531 -7.21385,9.37801 -7.21384,6.61269 -11.30169,7.45431 -4.92947,1.32254 -5.65085,2.64508 -0.84162,1.563 -7.815,1.563 l -7.09362,0 1.20231,21.64155 q 0.48092,8.29592 0.48092,14.54792 0,7.69478 -1.32254,9.61847 -2.04392,2.40462 -3.48669,2.40462 -2.64508,0 -3.36647,-5.41039 -1.20231,-9.25777 -3.00577,-35.1074 -1.80346,-25.84963 -1.80346,-34.74671 l 0,-12.86469 -3.60692,2.52484 q -2.40462,1.68323 -4.20808,1.68323 -0.72139,0 -1.563,-0.84161 -0.72139,-0.84162 -0.72139,-2.04393 0,-3.36646 6.85316,-10.58031 3.84738,-4.08785 5.77108,-5.41038 1.92369,-1.32254 3.96761,-1.32254 0.60116,0 2.04393,0.24046 1.44277,0.12023 3.24623,0.12023 z m 26.21032,9.01731 q -6.252,-1.44277 -8.77685,-1.44277 -2.40462,0 -11.06124,1.80346 -6.37223,1.32254 -7.93523,3.24623 -1.563,1.9237 -1.563,8.77685 0,6.97339 0.84161,15.14909 0.84162,8.17569 1.80347,9.25777 0.48092,0.60116 2.76531,0.60116 3.84738,0 10.33985,-1.68324 6.49246,-1.80346 10.46008,-3.96761 2.40461,-1.32254 4.08785,-3.126 1.68323,-1.9237 1.80346,-3.36647 0.36069,-2.64508 4.20808,-7.69477 3.96761,-5.16993 3.96761,-8.41616 0,-6.73292 -10.941,-9.13754 z"
           inkscape:connector-curvature="0" />
        <path
           style="fill:#add8e6;fill-opacity:1"
           id="path4473"
           d="m 678.33109,275.43845 q 0,-3.00578 1.80346,-3.00578 2.40462,0 4.20808,4.44854 1.563,3.96762 3.126,37.87271 1.68323,35.46809 2.76531,40.27733 0.84162,3.72715 3.126,3.96761 0.48093,0.12024 1.44277,0.12024 3.126,0 14.30747,-2.52485 11.3017,-2.64508 21.28086,-5.16993 10.09938,-2.64507 10.46008,-2.64507 2.04392,0 3.24623,1.563 1.32254,1.563 1.32254,2.52484 0,0.84162 -2.28439,3.00577 -3.84738,3.126 -22.36293,7.81501 -18.51555,4.689 -29.57678,4.689 -5.0497,0 -6.6127,-1.80346 -2.52484,-2.88554 -3.60692,-18.27509 -0.36069,-6.37223 -1.32254,-28.73516 -1.32254,-31.74094 -1.32254,-44.12471 z"
           inkscape:connector-curvature="0" />
        <path
           style="fill:#add8e6;fill-opacity:1"
           id="path4475"
           d="m 760.08617,367.89595 q 0,-1.80347 2.52485,-5.41039 2.52485,-3.72716 2.52485,-5.41039 0,-2.28438 1.68323,-2.88554 1.32254,-0.48092 3.48669,-6.49246 2.28439,-6.01154 3.96762,-8.05547 1.68323,-1.92369 3.72715,-6.49246 2.04393,-4.56877 7.93524,-19.95832 3.72715,-9.61846 10.33985,-23.20455 6.61269,-13.58608 8.17569,-14.66816 1.44277,-0.84161 1.9237,-0.84161 0.84161,0 2.40461,1.08208 1.32254,0.96184 5.16993,13.58608 3.96762,12.62423 3.96762,16.23116 0.12023,2.40462 2.28438,10.941 2.16416,8.41616 3.00577,13.34562 0.72139,4.92947 3.72716,15.63001 3.126,10.58031 3.126,13.10516 0,2.52485 -1.68323,2.52485 -1.32254,0 -3.72716,-1.32254 -1.08207,-0.60116 -1.80346,-1.32254 -0.72138,-0.72139 -1.20231,-1.563 -0.36069,-0.84162 -0.84161,-2.64508 -0.48093,-1.80346 -0.84162,-3.48669 -0.36069,-1.68323 -1.20231,-5.41039 -0.72138,-3.72715 -1.563,-7.21385 l -2.28438,-9.49823 -5.89131,0.72138 q -6.49247,0.96185 -14.30747,1.563 l -8.41616,0.72139 -3.48669,6.61269 q -9.7387,18.15486 -13.10516,26.33055 -2.76531,6.49247 -5.89131,6.49247 -1.32254,0 -2.52485,-0.72139 -1.20231,-0.72138 -1.20231,-2.28438 z m 52.30041,-49.5351 q 0,-3.24623 -2.76531,-15.63001 -2.64508,-12.504 -3.96762,-12.504 -0.96184,0 -6.252,10.70054 -5.16992,10.58031 -8.41616,19.23693 l -1.44277,3.72716 9.49824,-0.72139 q 8.77685,-0.72138 11.06123,-1.44277 2.28439,-0.84162 2.28439,-3.36646 z"
           inkscape:connector-curvature="0" />
        <path
           style="fill:#add8e6;fill-opacity:1"
           id="path4477"
           d="m 867.24563,292.63145 q -3.96761,0 -8.29592,0.96185 -4.32831,0.96185 -5.65085,0.96185 -3.00577,0 -5.16993,-1.08208 -2.04392,-1.08208 -2.04392,-2.76531 0,-2.04392 2.64508,-2.76531 2.76531,-0.84162 14.42769,-2.64508 23.68548,-3.60692 45.32702,-7.815 13.34562,-2.52485 17.31324,-2.52485 3.72716,0 7.57454,1.563 3.84739,1.563 3.84739,3.4867 0,1.80346 -3.126,3.126 -3.126,1.20231 -8.29593,1.20231 -8.05546,0 -17.19301,2.16415 l -9.25777,2.16416 1.80346,10.09938 q 1.32254,9.37801 3.12601,35.94902 1.92369,26.45078 2.28438,29.57678 0.36069,3.126 0.36069,4.689 0,3.72716 -3.24623,3.72716 -3.126,0 -4.689,-7.81501 -1.44277,-7.815 -2.76531,-30.65885 -2.40462,-38.95479 -6.252,-43.04264 -0.96185,-0.96184 -3.126,-0.96184 -0.96185,0 -8.29593,1.2023 -7.21385,1.20231 -11.3017,1.20231 z"
           inkscape:connector-curvature="0" />
        <path
           style="fill:#add8e6;fill-opacity:1"
           id="path4479"
           d="m 973.65369,366.9341 q -0.96184,0 -3.00577,-0.84162 -1.92369,-0.96184 -2.40461,-0.96184 -1.08208,0 -2.28439,-1.32254 -1.08208,-1.32254 -1.08208,-2.64508 0,-1.68323 1.80347,-4.689 1.92369,-3.00577 3.36646,-3.60693 0.96185,-0.48092 2.76531,-0.48092 6.252,0 6.252,4.80923 0,2.76531 -1.563,6.25201 -1.44277,3.48669 -3.84739,3.48669 z m -7.45431,-63.9628 q 0,-1.44277 0.48093,-1.80346 0.48092,-0.36069 1.92369,-0.36069 0.84162,0 4.08785,0.48092 3.24623,0.36069 5.16992,0.48092 l 4.20808,0.48093 -0.36069,4.44854 q -0.24046,3.126 -3.126,12.8647 -2.88554,9.61846 -4.32831,17.43346 -0.60116,3.24624 -2.04393,3.24624 -0.96184,0 -1.563,-0.72139 -0.48092,-0.84161 -0.84161,-3.00577 -0.36069,-2.28438 -0.60116,-4.56877 -0.12023,-2.40462 -0.60115,-7.21385 -0.36069,-4.80923 -0.84162,-9.13754 -0.36069,-2.04393 -0.36069,-4.689 0,-0.48093 0.12023,-1.80347 0.12023,-1.32253 0.12023,-1.92369 0,-1.563 -0.60115,-2.04392 -0.84162,-0.48093 -0.84162,-2.16416 z"
           inkscape:connector-curvature="0" />
      </g>
    </g>
  </g>
</svg>
